<svg width="26" height="26" viewBox="0 0 26 26" xmlns="http://www.w3.org/2000/svg" xmlns:sketch="http://www.bohemiancoding.com/sketch/ns"><title>icon-profile</title><desc>Created with Sketch.</desc><path d="M0 13c0 7.15 5.85 13 13 13s13-5.85 13-13-5.85-13-13-13-13 5.85-13 13zm13-9.1c2.21 0 3.9 1.69 3.9 3.9s-1.69 3.9-3.9 3.9-3.9-1.69-3.9-3.9 1.69-3.9 3.9-3.9zm0 18.46c-3.25 0-6.11-1.69-7.8-4.16 0-2.6 5.2-4.03 7.8-4.03 2.6 0 7.8 1.43 7.8 4.03-1.69 2.47-4.55 4.16-7.8 4.16z" sketch:type="MSShapeGroup" fill="#1DE9B6"/></svg>