<svg width="66" height="64" viewBox="0 0 66 64" xmlns="http://www.w3.org/2000/svg" xmlns:sketch="http://www.bohemiancoding.com/sketch/ns"><title>icon-megaphone</title><desc>Created with Sketch.</desc><path d="M13.554 45.283c-7.416-.892-13.167-7.307-13.167-15.089 0-8.392 6.689-15.195 14.941-15.195l.077.001.348-.022h21.568l23.926-13.814c.458-.352 1.025-.57 1.648-.57 1.502 0 2.719 1.218 2.719 2.719l-.016.158h.016v55.232h-.03l.03.301c0 1.501-1.218 2.719-2.719 2.719-.714 0-1.359-.281-1.844-.731l-26.16-15.103h-8.032l6.051 10.479.046.064.033.073.038.066-.007.004c.573 1.141.274 2.509-.691 3.306l.023.04-4.983 2.876-.025-.043c-.123.104-.254.203-.399.287-1.24.717-2.802.333-3.596-.832l-.017.01-.097-.168-.003-.004-.002-.005-9.676-16.76z" fill="#000" sketch:type="MSShapeGroup"/></svg>