<svg width="26" height="17" viewBox="0 0 26 17" xmlns="http://www.w3.org/2000/svg" xmlns:sketch="http://www.bohemiancoding.com/sketch/ns"><title>icon-people</title><desc>Created with Sketch.</desc><path d="M17.727 7.286c2.009 0 3.545-1.579 3.545-3.643s-1.536-3.643-3.545-3.643-3.545 1.579-3.545 3.643 1.536 3.643 3.545 3.643zm-9.455 0c2.009 0 3.545-1.579 3.545-3.643s-1.536-3.643-3.545-3.643-3.545 1.579-3.545 3.643 1.536 3.643 3.545 3.643zm0 2.429c-2.718 0-8.273 1.457-8.273 4.25v3.036h16.545v-3.036c0-2.793-5.555-4.25-8.273-4.25zm9.455 0c-.355 0-.709 0-1.182.121 1.418.971 2.364 2.429 2.364 4.129v3.036h7.091v-3.036c0-2.793-5.555-4.25-8.273-4.25z" sketch:type="MSShapeGroup" fill="#1DE9B6"/></svg>