<svg width="12" height="12" viewBox="0 0 12 12" xmlns="http://www.w3.org/2000/svg" xmlns:sketch="http://www.bohemiancoding.com/sketch/ns"><title>sync-green</title><desc>Created with bin/sketchtool.</desc><path d="M0 6c0 1.65.675 3.15 1.8 4.2l-1.8 1.8h4.5v-4.5l-1.65 1.65c-.825-.75-1.35-1.875-1.35-3.15 0-1.95 1.275-3.6 3-4.275v-1.5c-2.55.675-4.5 3-4.5 5.775zm12-6h-4.5v4.5l1.65-1.65c.825.75 1.35 1.875 1.35 3.15 0 1.95-1.275 3.6-3 4.275v1.575c2.55-.675 4.5-3 4.5-5.775 0-1.65-.675-3.15-1.8-4.2l1.8-1.875z" sketch:type="MSShapeGroup" fill="#000"/></svg>